<svg aria-hidden="true" style="width:0;height:0;position:absolute;overflow:hidden" xmlns="http://www.w3.org/2000/svg"><defs><symbol id="icon-Burger" viewBox="0 0 46 32"><path fill="none" stroke="#d41443" style="stroke:var(--color1,#d41443)" stroke-width="2.286" d="M0 2.286h45.714M0 16h45.714M0 29.714h45.714"/></symbol><symbol id="close-menu" viewBox="0 0 32 32"><path fill="none" stroke="#fff" style="stroke:var(--color2,#fff)" stroke-width="2" d="m2.52 2 26.96 28M2 29.48 30 2.52"/></symbol><symbol id="icon-buy-arrow" viewBox="0 0 26 32"><path fill="none" stroke="#d41443" style="stroke:var(--color1,#d41443)" stroke-linejoin="round" stroke-linecap="round" stroke-width="6.4" d="M3.52 3.2 20.352 16l-16.8 12.8"/></symbol><symbol id="icon-ellipse-hero" viewBox="0 0 32 32"><path d="M32.192 16c0 8.837-7.206 16-16.096 16S0 24.837 0 16 7.206 0 16.096 0s16.096 7.163 16.096 16z"/></symbol><symbol id="icon-arrow" viewBox="0 0 32 32"><path d="m19.414 27.414 10-10a2 2 0 0 0 0-2.828l-10-10a2 2 0 1 0-2.828 2.828L23.172 14H4a2 2 0 1 0 0 4h19.172l-6.586 6.586c-.39.39-.586.902-.586 1.414s.195 1.024.586 1.414a2 2 0 0 0 2.828 0z"/></symbol><symbol id="icon-close" viewBox="0 0 32 32"><path d="m26.667 7.303-1.97-1.97-7.808 7.808-7.808-7.808-1.97 1.97 7.808 7.808-7.808 7.808 1.97 1.97 7.808-7.808 7.808 7.808 1.97-1.97-7.808-7.808 7.808-7.808z"/></symbol><symbol id="icon-persone" viewBox="0 0 32 32"><path d="M16 16a5.333 5.333 0 1 0 0-10.666A5.333 5.333 0 1 0 16 16zm0 2.667c-3.561 0-10.667 1.787-10.667 5.333v1.333c0 .732.599 1.333 1.333 1.333h18.667c.732 0 1.333-.601 1.333-1.333V24c0-3.547-7.108-5.333-10.667-5.333z"/></symbol><symbol id="icon-telephone" viewBox="0 0 32 32"><path d="m24.882 19.774-3.268-.373a2.552 2.552 0 0 0-2.11.732l-2.368 2.368c-3.669-1.894-6.585-4.81-8.427-8.372l-.051-.108 2.382-2.377a2.552 2.552 0 0 0 .731-2.122l.001.012-.373-3.243a2.578 2.578 0 0 0-2.557-2.276H6.613c-1.454 0-2.663 1.209-2.574 2.661.683 10.987 9.47 19.762 20.444 20.444 1.452.089 2.663-1.12 2.663-2.574v-2.238a2.549 2.549 0 0 0-2.253-2.532l-.012-.001z"/></symbol><symbol id="icon-email" viewBox="0 0 32 32"><path d="M26.667 5.333H5.334A2.662 2.662 0 0 0 2.682 8l-.014 16c0 1.467 1.2 2.667 2.667 2.667h21.333c1.467 0 2.667-1.2 2.667-2.667V8c0-1.467-1.2-2.667-2.667-2.667zm-.534 5.668-9.426 5.892a1.343 1.343 0 0 1-1.421-.004l.006.003L5.866 11A1.133 1.133 0 1 1 7.07 9.083l-.004-.003 8.933 5.586 8.933-5.588a1.132 1.132 0 1 1 1.204 1.916l-.005.003z"/></symbol></defs></svg>