<svg version="1.0" xmlns="http://www.w3.org/2000/svg" width="373.333" height="373.333" viewBox="0 0 280 280"><path d="M145 49.1c0 .5.5.7 1 .4.6-.3 1-.8 1-1.1 0-.2-.4-.4-1-.4-.5 0-1 .5-1 1.1zM55.4 51.1c-1 1.1-1.9 3.7-2 5.7-.1 2.1-.4 5-.7 6.5-.2 1.6.1 3.4.9 4.2.9.9 1 1.5.3 1.7-.7.2-.8 2-.3 5.3.4 2.8 1 4.2 1.2 3.2.2-.9.7-1.7 1.2-1.7.9 0 .7 2.6-.3 3.6-1.2 1.2-.8 2.6.6 2.1 1.9-.7 1.7 2.5-.2 4-1.2 1-1.3 1.2-.2 1.3 1 0 1.1.3.2 1.3-.8 1.1-.2 1.8 2.9 3.5 3.8 2 4 2 4 .3 0-2.6 2.9-9.2 3-6.7 0 1.1.8 2.8 1.8 3.9 1.6 1.9 1.6 2-.4.9-1.2-.6-2.4-.8-2.8-.5-1.1 1.1-.7 4.1.7 4.7.8.3.7.5-.3.4-.8-.1-2.6.4-3.8 1.1-2.3 1.2-2.3 1.1-1.7-1.1.4-1.2.4-2 0-1.6-.5.4-1.5.2-2.4-.4-1.3-1-1.4-1-.4.1.7.8 1 2.7.7 4.5-.4 2.4-.3 2.8.5 1.6.6-.8 1.1-1.1 1.1-.7 0 .5.7.1 1.6-.7 2.2-2.2 2.5-2.1 6.8 2.4 2.1 2.2 3.5 4 3.1 4-.3 0-2.1-1.7-4-3.7-3.3-3.6-3.5-3.7-4.9-1.8-.7 1-1.2 2.5-.9 3.2.6 1.6-.2 1.6-2.8.3-1.2-.7-1.9-.7-1.9-.1 0 .5-.7 1.6-1.5 2.5-1.5 1.5-1 5 .6 4 .5-.3.6.3.2 1.2-.6 1.5-.7 1.5-2-.2-1.2-1.6-1.5-1.7-2.3-.4-1 1.6 1.2 4 3.6 4 .6 0 1.6.6 2.2 1.2.8 1 .4 1.3-1.8 1.3-1.6 0-2.8-.5-2.7-1 .1-.6-.4-.9-1-.7-.7.1-1.3-.2-1.3-.8 0-1.5-7.6-1.2-8.9.3-.6.8-.8 1.7-.4 2.1.4.4 0 .4-.9.1-.9-.4-2.6-.2-3.7.5-2 1-2 1.2-.4 3.6.9 1.4 2.6 3 3.7 3.4 1.7.7 1.8.9.4.9-1 .1-1.8.5-1.8 1s-1.4 1.1-3.1 1.5c-3.8.7-10.9 7.6-10.9 10.4 0 2.6 10.7 8.2 15.6 8.2 1.8 0 3.6.5 4 1.1.4.7 2.3.9 5.3.5 6.4-.8 7.4-1 8.9-1.9.6-.5 1.5-.6 2-.4.9.6 1-9.9 0-10.8-1-1-6.9.5-6.2 1.6.3.5 0 .9-.6.9-2.4 0-.3-2.4 3.1-3.5 2.8-1 3.5-1.7 3.7-4.2.2-2.4-.2-3.3-1.7-3.8-1.2-.3-2.1-1.1-2.1-1.6s-.3-.8-.7-.8c-2 .3-7.6-.2-7.1-.6.3-.3 5.9-.6 12.4-.7 11-.2 12.2-.1 15.2 2 3.2 2.3 4.1 4.5 2.3 5.7-.5.3-.9 3.3-.9 6.8.2 7.3-2 11.7-5.7 11.7-1.3 0-2.5.6-2.8 1.2-.5 1.7 1.2 6.8 2.3 6.5.4-.1 1.8.9 3.1 2.3 2.4 2.5 7.7 5.5 9.2 5.2.4-.1.7.6.7 1.6 0 1.4.2 1.5 1 .2.7-1.1 1-1.1 1-.2 0 .7.5 1 1 .7.6-.4.9-.1.8.7-.2.7.3 1.2 1 1.1.6-.2 1.2.1 1.2.6s1.5 1.8 3.3 3c4.6 2.9 1 2.6-3.8-.4-2.2-1.4-4.2-2.5-4.5-2.5-.3 0-.6 1.3-.7 2.8-.1 2.1.3 2.8 1.7 2.9 1.1.1 3.5 1.3 5.3 2.7 1.9 1.4 3.8 2.6 4.2 2.6.5 0 1.7.8 2.8 1.7 1.8 1.7 1.9 1.7 3.3-.2.8-1 1.4-1.4 1.4-.8 0 .6 1.2 1.8 2.6 2.8l2.6 1.6-.5-4.7c-.4-3.2 0-5.8 1-7.7.8-1.6 1.3-3.8 1-4.8-.3-1.2-.1-1.7.6-1.2.6.4.8 0 .4-1s.4-3.2 1.8-5.3c1.4-2 2.5-4.1 2.5-4.7 0-.5 1.5-.7 3.5-.3 2.1.4 3.5.3 3.5-.3 0-1.6-2.2-2.5-6.3-2.6-2.1-.1-4.2-.6-4.5-1.1-.4-.5-1.9-1.5-3.4-2.1-2.5-1.1-2.6-1.4-1.5-4.2 1-2.9.9-3.2-4.2-8.3-3-2.9-5.9-6.2-6.6-7.3-2.2-3.5-2.7-11.8-1-15.9.9-2 1.8-7.4 2.1-11.9.3-4.5 1.1-9.2 1.7-10.5.8-1.8.7-2.5-.6-3.5-.9-.6-1.9-2.8-2.2-4.7-.7-4.1-4.7-8.4-6.3-6.8-.7.7-1 .4-.9-.8.2-1.4-.4-1.8-2.1-1.7-1.6.2-2.1-.1-1.6-.9s.2-.9-1.1-.4c-1.5.5-1.6.4-.5-.9 1-1.2 1-1.5-.3-1.5-.8 0-2.1-.8-2.8-1.7-1.2-1.5-1.2-1.6.1-.8s1.3.7.1-.9c-1.1-1.3-1.6-1.4-2.2-.4-.8 1.2-1 1.1-1.3-1.1 0-.5-1.1-2.1-2.3-3.5-1.3-1.5-2.3-3.1-2.3-3.7 0-.6-.7-.9-1.5-.5-.8.3-1.4.2-1.2-.2.1-.5-1.1-2-2.7-3.5-3.6-3.3-8.5-3.6-11.2-.6zm8.1-.1c.3.6-.1.7-.9.4-1.8-.7-2.1-1.4-.7-1.4.6 0 1.3.4 1.6 1zm1.2 4.2c-.3.8-.6.5-.6-.6-.1-1.1.2-1.7.5-1.3.3.3.4 1.2.1 1.9zM70 58c0 .5-.8 1-1.7 1-1.5 0-1.6-.2-.3-1 1.9-1.2 2-1.2 2 0zm-9 4.6c0 .2-1.3-.2-3-1.1-1.6-.9-3-2-3-2.6 0-.6 1.4-.1 3 1.1 1.7 1.2 3 2.3 3 2.6zm10.2.2c-.7.2-1.2 1-1.2 1.8s.6 1.1 1.5.8c.8-.4 1.5-.1 1.5.4 0 2.4-2.1 2.1-5-.6-3-2.9-3-2.9-.5-2.4 1.5.2 2.5 0 2.5-.7s.5-.9 1.2-.5c.9.6.9.9 0 1.2zM62 68c1.2.7 1 .9-.8.7-1.2 0-2.2-.5-2.2-.9 0-1.1 1.2-1 3 .2zm14.4 3.1c.4 1.7.1 2.9-.7 3.2-.9.3-1.2-.7-1.2-3.4 0-4.1.9-4 1.9.2zm2.9.4c-.3.9-.8 1.4-1 1.1-.3-.3-.2-.9.2-1.5.9-1.6 1.5-1.3.8.4zm2.2 2.5c-.4.6-.1 1.9.6 2.8 1.1 1.3.9 1.3-.8-.2-2.2-1.8-2.2-3.6-.2-3.6.6 0 .7.5.4 1zm5.5 2.9c0 1.2-2 2.5-2.7 1.8-.7-.7.6-2.7 1.8-2.7.5 0 .9.4.9.9zM76.5 78c.3.5.1 1-.4 1-.6 0-1.1-.5-1.1-1 0-.6.2-1 .4-1 .3 0 .8.4 1.1 1zM63 81.4c0 .2-.7.9-1.5 1.6-1.3 1.1-1.4 1-.9-.4.5-1.4 2.4-2.3 2.4-1.2zm-4 22.5c0 1.3-2.9 3.5-3.7 2.7-.3-.3-.1-.6.6-.6.8 0 1.1-.7.7-1.5-.3-.9 0-1.5.9-1.5.8 0 1.5.4 1.5.9zm30 4.3c0 .5-.4.7-.9.4-.5-.4-1.1 0-1.4.6-.2.7-.4.1-.3-1.4.1-2 .4-2.4 1.4-1.6.6.6 1.2 1.5 1.2 2zM45.5 122c-2.7 1.2-4.3 1.2-2.5 0 .8-.5 2.2-.9 3-.9 1 0 .8.3-.5.9zm41.8 22 .6 3.5-1.4-3c-1.6-3.4-2-6.4-.6-5 .4.6 1.1 2.6 1.4 4.5zm14.4 23.6c-.5.5-5.7-1.3-5.7-2 0-.3 1.4 0 3.1.6 1.6.6 2.8 1.2 2.6 1.4zM135 50.7c-2.1 1.5-2.7 3.3-1.1 3.3.6 0 2.2-1.1 3.7-2.3 2.1-1.8 2.3-2.4 1-2.4-.9 0-2.5.7-3.6 1.4zM141.7 49.7c-1 .9-.9 2.3.2 2.3.5 0 1.1-.7 1.5-1.5.5-1.5-.5-2-1.7-.8zM198.6 79.7c-.6 1.4-.5 1.5.5.6.7-.7 1-1.5.7-1.8-.3-.3-.9.2-1.2 1.2zM173.4 80.7c.3.7-.3 1.7-1.2 2.2-1.1.7-1.2 1-.4 1.1.8 0 2.2 1 3.3 2.2 1 1.3 1.8 1.8 1.9 1.1 0-.6-.4-1.5-1-1.8-.5-.3-1-1.3-1-2.2 0-1.1.3-1.3 1.3-.5.6.6 1.4 1 1.7 1.1.3 0 1.3.3 2.2.6.9.4 2.4.3 3.3-.3 1.5-.8 1.5-1 .1-2.4-.8-.9-1.3-1.8-1-2.1.4-.3-1.7-.5-4.5-.4-3.8 0-5 .4-4.7 1.4zM162 80.7c.1.5 1.2 2.1 2.6 3.8 2 2.4 2.5 2.6 2.2 1-.2-1.2.2-1.9 1-1.8 1.9.4 1.4-1.5-.7-2.7-2.3-1.2-5.1-1.3-5.1-.3zM185.5 82c.3.5.8 1 1.1 1 .2 0 .4-.5.4-1 0-.6-.5-1-1.1-1-.5 0-.7.4-.4 1zM190.7 83.1c.4 1.5 0 2.2-1.6 2.6-1.1.3-2.1.9-2.1 1.4 0 .5-.7.9-1.5.9-1.5 0-2 1.2-.9 2.3.8.8 5.7-1.1 6.6-2.6 1.1-1.7 1-6.7-.1-6.7-.5 0-.7.9-.4 2.1zM198.6 84.7c-.6 1.4-.5 1.5.5.6.7-.7 1-1.5.7-1.8-.3-.3-.9.2-1.2 1.2zM142.7 86.1c.7.7 2.3 1.3 3.8 1.4 2.2.3 2.4.1 1.4-1.1-.6-.8-2.3-1.4-3.7-1.4-1.9 0-2.3.3-1.5 1.1zM156.3 86.5c-1.9 2.1-1.6 2.8 1.1 2.1 1.4-.3 2.8-.2 3.1.4.3.5 1.4 1 2.3 1 1.2-.1 1-.5-.8-1.5-1.4-.8-2-1.5-1.5-1.5.6 0 .3-.5-.5-1-1.9-1.3-2.2-1.2-3.7.5zM122 86.8c0 .4.9.8 1.9.8 1.1 0 1.7-.4 1.5-.8-.3-.4-1.2-.8-2-.8s-1.4.4-1.4.8zM150.2 89.2c.5 1.5 2.8 2.3 2.8 1 0-.5-.7-1.3-1.6-1.6-1-.4-1.4-.1-1.2.6zM192.7 89.4c-.4 1-.1 1.3.8.9.8-.3 1.2-.9.9-1.4-.7-1.2-1.1-1.1-1.7.5zM145.8 95.7c.7.3 1.6.2 1.9-.1.4-.3-.2-.6-1.3-.5-1.1 0-1.4.3-.6.6zM188.7 95.7c-.4.3-.7 1.1-.7 1.7 0 .6.5.5 1.2-.2.6-.6.9-1.4.7-1.7-.3-.3-.9-.2-1.2.2z"/><path d="M50.5 98.1c-.4.5.3.8 1.4.6 2.8-.4 3.4-1.2 1.1-1.4-1.1-.1-2.2.2-2.5.8zM202 98.1c0 .5.5.7 1 .4.6-.3 1-.8 1-1.1 0-.2-.4-.4-1-.4-.5 0-1 .5-1 1.1zM192 101.5c-2.4 2.6-2.1 2.9 1.8 1.9 1.2-.4 2.2-1.2 2.2-2 0-2.4-1.7-2.4-4 .1zM204.2 101.8c.1 1.5-.4 3.7-1 4.8-.6 1-1.2 1.3-1.2.7 0-.9-.7-1-2.4-.3-1.5.5-2.7.5-3.5-.3-.8-.8-1.5-.7-2.8.6-.9.9-1.3 2-.9 2.4.4.4 1.1.1 1.5-.6.7-1.1 1.1-.9 1.9.5.9 1.6 1.4 1.7 3.1.6 2.7-1.6 3.1-1.5 3.1.3 0 1-1 1.5-2.9 1.5-2.5 0-2.8.3-2.3 2.5.2 1.4.8 2.2 1.3 1.9.5-.3.7-1 .3-1.5-.3-.5 0-.8.8-.7.7.2 1.6 1.2 1.9 2.3.7 2.4-1.9 6.8-3.6 6.1-1-.3-1 .2-.2 2.5.6 1.6 1.5 2.9 2 2.9s.4.7-.3 1.5c-1 1.2-1 1.5.1 1.5 1 .1.9.4-.3 1.4-1 .7-1.8 1.8-1.8 2.3 0 .6-1 1.7-2.2 2.6-1.3.8-1.9 1.8-1.4 2.3.5.5 1.1.4 1.3-.4.8-2 2-1.4 2.7 1.4.4 1.4.1 3.9-.6 5.4-1.9 4.3-10.6 7.8-12.3 5-.4-.6-1.5-.8-2.6-.5-1 .4-2.7.2-3.6-.4-1.7-1-1.7-1 0-1.1 2.1 0 7.7-3 7.7-4.1 0-.4-1.8 0-3.9.8-4 1.6-7.1 1.3-7.1-.7 0-.5.7-1 1.5-1s1.5-.7 1.5-1.6c0-1.4-.2-1.4-1.7.1-2.3 2.4-6.7 3.9-7.1 2.5-.2-.6-1.7 1-3.4 3.5-3.2 4.9-4.4 5.5-5.1 2.7-.3-1.1-.5-.7-.6 1-.1 2.4-.6 2.7-5.3 3.6-5 .8-5.1.9-2.4 1.7 2 .5 4.4.3 7.5-.9 6.9-2.4 11.9-2 18.9 1.5 3.4 1.7 6 3.4 5.7 3.9-.3.5.8 1.4 2.5 2.2 1.6.7 3 1.6 3 2 0 .4.4 1.8 1 3.2 1.1 2.9 4 2.6 4-.4 0-2 2.4-7.1 5.6-11.8 2-2.9 4.2-11.2 3.6-13.5-.1-.5.2-.6.7-.3.5.3 1.4-1.6 2.1-4.2 2.4-8.8 2.2-12.4-.5-10.2-1.1.9-1.1.4-.3-2.7 1.5-5.4 2-18.3.7-18.3-.6 0-.7-1.3-.4-3.3.5-2.3.2-3.7-.9-4.6-1.2-1.1-1.5-.8-1.4 1.7zM169 103.3c0 1.5.4 2.7.9 2.7.6 0 .8-1 .6-2.1-.6-3.3-1.5-3.6-1.5-.6zM187.6 107.4c-1.6 1.4-3.5 2.2-4.3 1.9-.7-.3-1.3-.1-1.3.4s-.9.9-2 1c-1.7.2-2-.2-1.4-1.9.4-1.5.2-1.9-.7-1.5-.8.2-1.3 1-1.1 1.6.1.6-.7 1.1-1.7 1.1-1.1 0-4.6 2.3-7.7 5-7.4 6.5-9.5 7-17.1 4.4-1.5-.6-1.6-.4-.5.7.6.7 1.2 2.1 1.2 3 0 1.6-.4 1.7-3 .7-3.1-1-7.4-.3-5.4 1 .6.4 1.4 1.6 1.8 2.8.9 3.1 3.4 2.7 2.8-.5-.5-2.3-.3-2.5 1.1-1.2 1 .7 1.7 2 1.7 2.7 0 .8.4 1.4.9 1.4s1.2 1 1.5 2.2c.2 1.3.4.4.3-1.9-.2-3.9-.1-4.2 2-3.7 1.4.4 2.3.2 2.3-.5 0-.6 1-1.1 2.3-1.1 1.8 0 1.9-.2.7-1.1-1.1-.8-.6-.9 2-.4 5.1 1.1 9 1.4 9 .8 0-.3-.8-1.2-1.7-2-1-.8-1.2-1.2-.5-.8.6.3 1.2.1 1.2-.5 0-.7.7-1 1.5-.6.8.3 1.5.1 1.5-.4 0-.6 1.1-1 2.5-1s2.4-.5 2.3-1.2c-.2-.7.2-1.3.7-1.3.6-.1 2.7-.9 4.7-1.8 2.7-1.1 3.6-2 3.2-3.1-.4-1.1 0-1.6 1-1.6.9 0 1.6-.5 1.6-1 0-.6.7-1 1.5-1s1.5-.7 1.5-1.5c0-2.1-1-1.8-4.4.9zM120 117c0 .6 1.1 1.6 2.5 2.2 1.4.6 2.5 1.7 2.5 2.4s1.3 1.5 3 1.9c1.6.4 3.2 1.1 3.5 1.6.4.5 1.3.9 2.2.9.9 0 2.1.7 2.8 1.7.8 1.1 1.8 1.4 3.1.9 1.8-.7 1.8-.8.2-1.7-1-.6-1.8-1.6-1.8-2.4 0-1.5-3.4-3-4.9-2.1-.5.3-1.4-.1-2.1-.9-.7-.8-1.6-1.2-2.1-1-.4.3-2.6-.6-4.9-2-2.2-1.4-4-2.1-4-1.5zM136.5 120c.4.6 1.1.8 1.6.5 1.4-.9 1.1-1.5-.7-1.5-.8 0-1.2.5-.9 1zM31.4 121.6c-1.8 1.4-1.8 1.5.5.4 1.8-.9 2.6-.9 3.5.1.8.9.8 1-.1.5-.6-.3-1.4-.2-1.8.4-.3.5.3 1 1.4 1 2.4 0 2.7-1 .9-2.8-1.6-1.6-2-1.5-4.4.4zM112 121.1c0 .6-.6.9-1.3.6-.6-.2-1.8.1-2.4.8-.9 1-.9 1.4.2 1.9.8.3 1.7.1 2-.4.9-1.4 4.5-1.2 4.5.1 0 .8.5.8 1.5-.1.8-.7 2.1-1 2.9-.7.8.3 1.7-.1 2-.9.8-2-1.7-2.8-4.3-1.5-1.3.7-2.2.8-2.6.1-.8-1.3-2.5-1.3-2.5.1zM31.7 125.1c.7.7 1.5 1 1.8.7.3-.3-.2-.9-1.2-1.2-1.4-.6-1.5-.5-.6.5z"/><path d="M158 126.8c0 .5.7 1.5 1.5 2.2.8.7 1.5.8 1.5.2 0-.5-.7-1.5-1.5-2.2-.8-.7-1.5-.8-1.5-.2zM162.3 128.5c.7 1.4 1.6 2.5 2 2.5.9 0-.9-3.6-2.2-4.4-.5-.4-.4.5.2 1.9zM167 140c.6 1.1 1.3 2 1.6 2 .2 0 0-.9-.6-2s-1.3-2-1.6-2c-.2 0 0 .9.6 2zM141.2 143.2c1.3 1 3.2 1.7 4.3 1.6 1.7-.1 1.7-.1-.2-.5-1.3-.2-2.3-1-2.3-1.7 0-.6-.9-1.2-2-1.2-2 0-2 .1.2 1.8zM110.5 145c-.3.5-.1 1 .4 1 .6 0 1.1-.5 1.1-1 0-.6-.2-1-.4-1-.3 0-.8.4-1.1 1zM59 147c0 .5.5 1 1 1 .6 0 1-.5 1-1 0-.6-.4-1-1-1-.5 0-1 .4-1 1zM63 147.4c0 .2.7.7 1.6 1 .8.3 1.2.2.9-.4-.6-1-2.5-1.4-2.5-.6zM134.8 150.4c-2 .6-4.3 1.7-4.9 2.3-.8.8-1.8.9-3.1.2-1-.6-1.8-.6-1.8 0 0 1.3 3.7 2 11.2 2 7.7 0 9.5-1.3 4.7-3.3-2.7-1.2-3-1.5-1.3-1.9 1-.2 1.2-.5.4-.5-.8 0-3.2.5-5.2 1.2zM157.9 163.7c-1.3 1.5-1.2 1.5.9.4 2.3-1.2 2.8-2.1 1.3-2.1-.5 0-1.5.7-2.2 1.7zM148.6 182.5c-1.6 1.2-1.7 1.5-.4 1.5.9 0 1.8-.7 2.2-1.5.7-1.8.6-1.8-1.8 0zM196 183.5c0 .8.2 1.5.4 1.5s.6-.7 1-1.5c.3-.8.1-1.5-.4-1.5-.6 0-1 .7-1 1.5zM111.6 184.1c.3.6.2 1.4-.4 1.8-1.6 1 5.5 10.3 7.6 9.8.9-.2 3.4.5 5.4 1.5 3.7 1.8 6.8 2.3 6.8 1.2 0-1.6-2.2-4.4-3.5-4.4-.9 0-1.2-.6-.8-1.7.4-.9.2-1.4-.4-1-.5.3-1.7-.3-2.6-1.4-1.6-1.8-1.6-1.9 1-1.9 3.3 0 2.4-1.1-1.4-1.5-6.7-.8-9.8-1.5-10.1-2.5-.2-.5-.8-1-1.3-1-.6 0-.7.5-.3 1.1zM131.6 185.6c-.4 1-.1 1.4.6 1.2 1.5-.5 2.3-2.8 1-2.8-.5 0-1.3.7-1.6 1.6zM168.4 186c0 1 .5 1.6 1.1 1.4.6-.3 2.7.2 4.6 1.1 1.9.9 2.4 1.4 1.2 1.2-1.2-.3-3 .1-4 .8-.9.7-2.4 1-3.2.7-1-.4-1.3-.1-.8 1.1.4 1.1-.1 2.5-1.3 3.7-1.6 1.6-2.4 1.8-4.7.9l-2.8-1 2.2 2.1c2.2 2 2.4 2 5 .3 1.6-1 3.1-2.1 3.4-2.6.3-.5 1-.9 1.5-1 .5-.1.8-.5.7-1-.2-.4.4-.7 1.3-.7 1.5 0 1.5.2.1 2.3-1.5 2.3-1.5 2.4.9 1.9 1.4-.2 2.9-1.3 3.5-2.4.5-1 1.4-1.6 1.9-1.3.4.3 1.6.2 2.5-.1 1.2-.5 1.5-1.4 1-3.3-.9-3.6-1.3-3.9-7.2-4.5-2.9-.2-5.6-.7-6.1-.9-.4-.3-.8.3-.8 1.3zM162 186c-2.2.7-2.1.8 1.3.9 2 .1 3.7-.4 3.7-.9 0-1.1-1.4-1.1-5 0zM153.3 186.7c.9.2 2.3.2 3 0 .6-.3-.1-.5-1.8-.5-1.6 0-2.2.2-1.2.5z"/><path d="M160.3 192c-1.8 1.1-3.3 2.2-3.3 2.4 0 .2 1.3.6 2.9.8 1.7.2 2.7 0 2.4-.4-.3-.5.5-1.2 1.6-1.5 1.2-.3 2-1 1.8-1.6-.6-1.8-2.1-1.8-5.4.3zM144.6 193.3c.3 1 .9 1.5 1.2 1.2.3-.3 0-1.1-.7-1.8-1-.9-1.1-.8-.5.6zM150 193.6c0 .8.5 1.2 1 .9.6-.3 1-1 1-1.6 0-.5-.4-.9-1-.9-.5 0-1 .7-1 1.6zM138.5 195c-.3.5-.1 1.9.5 3s.7 2 .3 2c-.9 0 1.9 2 2.9 2 .3 0 .4-1 .1-2.3-.4-1.8-.3-1.9.6-.7.8 1.1 1.1 1.1 1.1.2 0-.7-.6-1.5-1.4-1.8-.8-.3-1.2-1.2-.9-2 .6-1.6-2.2-2-3.2-.4zM145 196.4c0 .2.9.6 2 .9 1.1.3 1.8.1 1.4-.4-.5-.9-3.4-1.3-3.4-.5zM184.7 200.1c-.4 1.5-.2 1.9 1 1.5.8-.3 1.7-.6 1.9-.6 1 0 .3-1.8-1-2.3-.8-.3-1.6.2-1.9 1.4zM157 200c0 .5.9 1 2 1 1.4 0 1.8.5 1.4 1.7-.5 1.4-.4 1.5.4.4.6-.8.8-2 .5-2.8-.6-1.5-4.3-1.8-4.3-.3zM180.5 199.7c-2.5.5-10 11.2-8.7 12.5.5.5 1.9 1 3.2 1.3 1.2.2 2 .2 1.7-.1-.8-.8 4-8.9 5.1-8.7.6.2.9-.3.6-1.1-.3-.8-.1-1.7.5-2.1 1.2-.7 1.5-2.6.4-2.4-.5.1-1.7.4-2.8.6z"/><path d="M189.2 199.4c.3.4-.2 1.6-1.3 2.7s-1.7 2.4-1.4 2.9c.4.6 0 1-.8 1s-1.8 1.2-2.1 2.6c-.5 1.9-1.1 2.4-2.6 1.9-1.1-.4-2-.2-2 .3 0 1.5 4.2 2.3 5.6 1.1.7-.6 1-1.8.7-2.6-.4-1-.2-1.4.4-1 .5.3 1.6-.6 2.3-2.1.7-1.5 1.6-3.5 2.1-4.4.6-1.1.4-2-.4-2.4-.6-.4-.9-.4-.5 0zM132 202c-1.3.8-1.1 1.3 1.1 3.6 1.5 1.5 3.2 2.3 3.8 2 1.6-1 1.4-2.6-.4-2.6-.8 0-1.5-.9-1.5-2 0-2.2-.7-2.5-3-1zM136.5 203c.3.5 1.1 1 1.6 1 .6 0 .7-.5.4-1-.3-.6-1.1-1-1.6-1-.6 0-.7.4-.4 1zM155.5 203c-.8 1.3.9 2 2.4 1.1 1-.6.9-1-.3-1.4-.8-.3-1.8-.2-2.1.3zM122.6 204.4c.7 1.9 2 2.1 3 .3.4-.6.4-.9-.1-.5-.4.4-1.4.3-2.2-.4-1.1-.8-1.2-.7-.7.6zM167.5 203.9c-.3.6-1.6 1.2-2.8 1.2-1.5.1-1.7.3-.6.6s1.5 1.1 1.2 2.4c-.8 2.9.4 2.3 2.1-1.3 1.5-2.9 1.6-5.2.1-2.9z"/><path d="M141.7 205.4c-.4.9-.1 1.6.6 1.6.7.1.5.6-.5 1.4-1.6 1.1-1.4 1.4 1.7 2.9 3.8 1.8 4.3 2.8 2 4.7-.8.7-1.5.8-1.5.3 0-.6-1.9-1.3-4.2-1.6-2.3-.3-4.5-1.3-5-2.1-.5-.9-2.1-1.6-3.5-1.6-1.5 0-2.4.3-2 .6.8.8-1.4 6.7-3 7.9-.8.6-1.5 3.6-1.7 7-.5 7.5-1.5 11.7-2.7 10.9-.5-.3-.9.2-.9 1.1 0 .9.4 1.4.8 1.1 2.1-1.3.3 3.8-2.1 5.8-1.5 1.3-2.7 2.7-2.7 3.1 0 .4.7.2 1.5-.5s1.5-.9 1.5-.4c0 .4.6 0 1.3-1.1.8-1 1.9-1.5 2.5-1.1.6.3 1.3.2 1.7-.4.3-.5.1-1-.6-1s-1-.2-.7-.5c.9-.9 3.9.7 3.5 1.9-.2.6 0 2.1.4 3.4.7 1.8.5 2.2-1 2.2-1.1 0-2.1-.5-2.3-1.2-.3-.9-.6-.9-1.2 0-.4.7 0 1.5 1.1 2 2.2.9 3.1 3.7.9 2.9-.9-.4-1.8-.2-2.2.4-1.2 1.9-3.6-1.3-2.9-4 .5-2 .4-2.2-.8-1.3-.8.7-1.8.8-2.2.4-.5-.4-.4 0 .1.8.4.8.7 2.7.5 4.2-.2 2.8.4 3.2 3.9 2.9 1.3-.2 1.3 0 .1.8-1 .6-1.2 1.9-.7 4.7.4 2.2.8 4.4.8 5.1.1.7.5 1 .9.7.4-.2 1 .2 1.2.8.4.8.6.7.6-.4.1-.9-.5-1.9-1.1-2.2-.7-.3.6-.5 2.9-.3 4.3.2 6.1-1.2 4.6-3.5-.3-.6-.1-.8.4-.5.6.4 1.3-.3 1.7-1.6 1.1-4.2.8-4.7-2-3.7-1.4.6-2.6 1-2.7 1-.1 0-.2-1.4-.3-3-.1-2.5.3-3 2.2-3 1.4 0 2.4-.6 2.4-1.5 0-.8.9-1.9 2-2.5 1.1-.6 2.7-2.3 3.5-3.8l1.6-2.7-.4 2.7c-.3 2.3 0 2.8 2.4 3.3 1.5.3 3 1.3 3.3 2.1.4 1.1-.5 1.4-3.9 1.4-2.5 0-4.5.4-4.5 1 0 .5.7.7 1.5.4.8-.3 2.1 0 2.9.8 1.2 1.3 1.1 1.6-.5 2.6-1 .7-1.9 1.8-1.9 2.5 0 .8.4.7 1-.3.5-.8 1-1.1 1-.6 0 .5.7.3 1.5-.4 1.1-.9 1.5-.9 1.5-.1 0 .7.5.9 1.3.5.8-.5.8-.2-.2.9-1 1.3-1.1 2-.2 3 .8 1.1.6 1.8-.8 3.1-1.5 1.3-2 1.4-2.4.4-.3-.7-.6.4-.8 2.4-.1 2.1-.2 4.4-.3 5-.1.7-.5 1.6-1 2-.6.4-.4 1.3.3 2.2 1.8 2.1 9.5 2.1 17.8-.1 7-1.9 8.8-3.9 7.8-9-.2-1.4.1-3.5.7-4.7.7-1.2 1.1-3.5 1-5.1-.3-3.6.4-4.7 4.1-6.2 1.5-.7 2.7-1.8 2.7-2.5 0-.9-.3-.9-1.2 0-1.5 1.5-2.8 1.6-2.8.2 0-.6 1-1.5 2.3-2 1.2-.5 1.6-.9.9-.9-.7-.1-1-.6-.7-1.1.4-.6 1.2-.7 1.8-.3.8.5.8.2-.1-.9-1-1.2-.9-1.8.3-2.8 1.7-1.4 1.3-7.6-.5-7.2-.6.1-.9-.2-.5-.8.4-.7-.4-.9-2.4-.5-3.2.6-5.1-.9-2.4-1.9.9-.4 2-.1 2.5.6.5.9.8.9.8.1 0-.6.9-.9 2-.6 1.1.3 2 .9 2 1.4 0 .5.5.9 1.2.9.9 0 .9-.3.1-1.1s-.5-2.3 1.3-5.7c1.3-2.5 2.4-5.1 2.4-5.9 0-.8.4-1.2.8-.9.4.2.9-.4.9-1.5.2-1.8-1.6-2.5-5.4-2-.7.1-1.3-.4-1.3-1 0-.7-.3-.9-.7-.6-.3.4-1.2.2-2-.4-.7-.6-1.3-.8-1.3-.5 0 .4-.8.2-1.8-.3-1.4-.7-2.1-.5-3.2 1.2-.8 1.2-1.3 2.8-1.1 3.5.1.8-.5 2.3-1.5 3.3-.9 1.1-1.9 3.3-2.1 5-.2 2.1-2.1 4.9-6.4 9.2-4.5 4.7-5.9 6.7-5.6 8.4.2 1.2-.1 2.4-.7 2.6-.8.3-.7 1.1.2 2.7.7 1.2 1.1 2.5.8 2.8-.3.3-.6.1-.6-.5 0-.5-1.1-1.5-2.4-2.1-1.9-.8-2.3-1.6-1.9-3.4.3-1.3 1-2.8 1.5-3.4.5-.7.8-1.6.7-2-.4-2.3.3-3.6 3-5.2 2.9-1.7 3.1-2.1 3.1-4.6 0-.8 1.6-2 3.5-2.7 3.4-1.3 3.4-1.4 1.9-3.7-1.4-2.1-1.4-2.6 0-4.7 1.5-2.2 1.5-2.4 0-1.8-1.2.4-1.5.2-1.2-.8.3-.8 1-1.4 1.6-1.4 1 0 4.2-4.7 4.2-6.1 0-.2-2.1-.4-4.7-.5-3.5-.1-4.2-.3-2.4-.8 3.3-.9 3.8-2.9.7-2.6-2.9.4-6.9 2.9-5.9 3.8 1.2 1.3-.8.7-3.5-1-1.5-.9-3.4-2.5-4.3-3.6-1.4-1.7-1.7-1.8-2.2-.3zm13.7 7c-1 .8-2.1 1.2-2.4 1-.5-.6 2.1-2.4 3.4-2.4.6 0 .1.6-1 1.4zm-8.8 9.6c.9 0 1.2.5.8 1.2-.6 1-.4 1 .7 0 1.8-1.7 3.9-1.5 3.9.3 0 1.1-1.1 1.5-3.9 1.5-3 0-4-.4-4.4-1.9-.5-2.1.5-4 1.1-2.2.2.6 1 1.1 1.8 1.1zm23.8 2.4c-.3.9-1 1.3-1.6 1-.5-.3-.4-1.2.3-2 1.5-1.8 2.2-1.3 1.3 1zm6.6-1.4c0 .5-.7.7-1.5.4-.8-.4-1.5-.8-1.5-1 0-.2.7-.4 1.5-.4s1.5.4 1.5 1zm-34.4 11.5c-1.4 3.9-2.7 5.7-2.1 2.8 1.3-6.3 1.6-7.3 2.4-6.9.5.3.3 2.1-.3 4.1zm-9.2 5.7c-.7 1.1-3.4 1-3.4-.1 0-.6.9-.9 1.9-.8 1.1 0 1.7.5 1.5.9zm15.2 13c.5.7.3.8-.6.3-1-.6-1.2-.4-.7.8.3.9.1 1.9-.5 2.3-.7.5-.8.2-.3-.6.6-1 .4-1.2-.8-.7-1.8.7-1.9-1.3-.2-2.5 1.4-1.1 2.3-1 3.1.4zm-20.1 9.2c1.2 1.2 1.2 1.5 0 2-.8.3-1.5.4-1.5.2 0-.3-.3-1.1-.6-2-.8-2 .3-2.1 2.1-.2zm35.1 10.3c-1.5 2.8-1.6 2.8-1.3.3.1-1.4.6-2.8 1.2-3.2 1.7-1.2 1.7-.1.1 2.9zM108.6 205.7c-.3.3-.6 1.7-.6 3 0 1.4-.4 3.2-.9 4.2-.8 1.5-.4 1.7 3.2 1.9 3.4.2 3.9 0 2.4-.9-1-.6-2.5-.8-3.3-.5-.8.3-1.4.1-1.4-.4 0-.6.5-1 1.1-1 .5 0 .7-.5.4-1-.6-.9.8-1.4 2.8-1.1.4 0 .7-.4.7-.9 0-.6-.7-1-1.6-1-.8 0-1.3-.4-.9-.9.6-1.1-.9-2.3-1.9-1.4zM181 207.1c0 .5.5.7 1 .4.6-.3 1-.8 1-1.1 0-.2-.4-.4-1-.4-.5 0-1 .5-1 1.1zM127 210c-.9.6-1 1-.3 1 .6 0 1.5-.5 1.8-1 .8-1.2.4-1.2-1.5 0zM122.5 213c.3.5 1 1 1.6 1 .5 0 .9-.5.9-1 0-.6-.7-1-1.6-1-.8 0-1.2.4-.9 1zM118.7 213.6c-.3.4-.2 1.5.4 2.6.5 1 .8 2.2.5 2.6-.3.4.4 1.3 1.4 1.9 1.6 1 1.8.8 2.3-2 .5-3.7-2.6-7.1-4.6-5.1zm2.7 2c.3.8.2 1.2-.4.9-.6-.3-1-1-1-1.6 0-1.4.7-1.1 1.4.7zM118 227.2c0 .4.5.8 1.1.8.5 0 .7.5.3 1.2-.4.7-.3.8.4.4 1.7-1 1.5-3.3-.3-3.3-.8 0-1.5.4-1.5.9zM117.7 232.4c-.4 1-.5 2.1-.2 2.4.9.9 1.7-.6 1.3-2.5-.3-1.7-.4-1.7-1.1.1zM115.5 242.9c-.3.5-.1 1.2.5 1.6.5.3 1-.1 1-.9 0-1.8-.6-2.1-1.5-.7z"/><path d="M134.6 262.8c-.4.7-.4 2.1-.1 3.3.7 2.1-1.1 5.2-2.6 4.3-.5-.3-.9 0-.9.5 0 .6.5 1.1 1 1.1 1.4 0 1.3 2.7-.2 3.6-.7.4-.8.3-.4-.4s.3-1.2-.2-1.2c-.6 0-1.2.7-1.6 1.5-.8 2.1 2.8 2 4.5-.2.8-.9 1.3-2.4 1.1-3.3-.1-.9.4-2.3 1.3-3 .8-.7 1.5-2.7 1.5-4.4 0-2.1-.3-2.7-.9-1.7-.7 1.1-.9 1.1-1.3 0-.3-1-.6-1-1.2-.1zM125.9 273.1c-.8 1.6-.7 1.7 1.3 1 2.6-1 3.5-2.8 1.3-2.8-.9 0-2 .8-2.6 1.8z"/></svg>