<svg aria-hidden="true" style="width:0;height:0;position:absolute;overflow:hidden" xmlns="http://www.w3.org/2000/svg"><defs><symbol id="burger" viewBox="0 0 46 32"><path fill="none" stroke="#d41443" style="stroke:var(--color1,#d41443)" stroke-width="2.286" d="M0 2.286h45.714M0 16h45.714M0 29.714h45.714"/></symbol><symbol id="close-menu" viewBox="0 0 32 32"><path fill="none" stroke="#fff" style="stroke:var(--color2,#fff)" stroke-width="2" d="m2.52 2 26.96 28M2 29.48 30 2.52"/></symbol><symbol id="icon-buy-arrow" viewBox="0 0 26 32"><path fill="none" stroke="#d41443" style="stroke:var(--color1,#d41443)" stroke-linejoin="round" stroke-linecap="round" stroke-width="6.4" d="M3.52 3.2 20.352 16l-16.8 12.8"/></symbol><symbol id="icon-ellipse-hero" viewBox="0 0 32 32"><path d="M32.192 16c0 8.837-7.206 16-16.096 16S0 24.837 0 16 7.206 0 16.096 0s16.096 7.163 16.096 16z"/></symbol><symbol id="icon-arrow" viewBox="0 0 32 32"><path d="m19.414 27.414 10-10a2 2 0 0 0 0-2.828l-10-10a2 2 0 1 0-2.828 2.828L23.172 14H4a2 2 0 1 0 0 4h19.172l-6.586 6.586c-.39.39-.586.902-.586 1.414s.195 1.024.586 1.414a2 2 0 0 0 2.828 0z"/></symbol><symbol id="icon-close" viewBox="0 0 32 32"><path d="m26.667 7.303-1.97-1.97-7.808 7.808-7.808-7.808-1.97 1.97 7.808 7.808-7.808 7.808 1.97 1.97 7.808-7.808 7.808 7.808 1.97-1.97-7.808-7.808 7.808-7.808z"/></symbol><symbol id="icon-persone" viewBox="0 0 32 32"><path d="M16 16a5.333 5.333 0 1 0 0-10.666A5.333 5.333 0 1 0 16 16zm0 2.667c-3.561 0-10.667 1.787-10.667 5.333v1.333c0 .732.599 1.333 1.333 1.333h18.667c.732 0 1.333-.601 1.333-1.333V24c0-3.547-7.108-5.333-10.667-5.333z"/></symbol><symbol id="icon-telephone" viewBox="0 0 32 32"><path d="m24.882 19.774-3.268-.373a2.552 2.552 0 0 0-2.11.732l-2.368 2.368c-3.669-1.894-6.585-4.81-8.427-8.372l-.051-.108 2.382-2.377a2.552 2.552 0 0 0 .731-2.122l.001.012-.373-3.243a2.578 2.578 0 0 0-2.557-2.276H6.613c-1.454 0-2.663 1.209-2.574 2.661.683 10.987 9.47 19.762 20.444 20.444 1.452.089 2.663-1.12 2.663-2.574v-2.238a2.549 2.549 0 0 0-2.253-2.532l-.012-.001z"/></symbol><symbol id="icon-email" viewBox="0 0 32 32"><path d="M26.667 5.333H5.334A2.662 2.662 0 0 0 2.682 8l-.014 16c0 1.467 1.2 2.667 2.667 2.667h21.333c1.467 0 2.667-1.2 2.667-2.667V8c0-1.467-1.2-2.667-2.667-2.667zm-.534 5.668-9.426 5.892a1.343 1.343 0 0 1-1.421-.004l.006.003L5.866 11A1.133 1.133 0 1 1 7.07 9.083l-.004-.003 8.933 5.586 8.933-5.588a1.132 1.132 0 1 1 1.204 1.916l-.005.003z"/></symbol><symbol id="icon-close-icon" viewBox="0 0 32 32"><path stroke="#fff" style="stroke:var(--color1,#fff)" stroke-width="2" d="m2.518 2 26.963 28M2 29.481 30 2.518"/></symbol><symbol id="icon-arrow--red" viewBox="0 0 22 32"><path fill="none" stroke="#d41443" style="stroke:var(--color1,#d41443)" stroke-linejoin="round" stroke-linecap="round" stroke-width="6.4" d="m4.559 3.205 13.724 12.82-13.724 12.82"/></symbol><symbol id="icon-arrow-wite" viewBox="0 0 22 32"><path fill="none" stroke="#d41443" style="stroke:var(--color1,#fff)" stroke-linejoin="round" stroke-linecap="round" stroke-width="6.4" d="m4.559 3.205 13.724 12.82-13.724 12.82"/></symbol><symbol id="icon-close_40px-1" viewBox="0 0 32 32"><path d="m23.743 10.308-1.505-1.505-5.966 5.965-5.965-5.965-1.505 1.505 5.965 5.965-5.965 5.966 1.505 1.505 5.965-5.966 5.966 5.966 1.505-1.505-5.966-5.966 5.966-5.965z"/></symbol><symbol id="icon-telegram" viewBox="0 0 34 34"><path d="m13.671 19.524-.337 4.43c.483 0 .692-.194.943-.426l2.263-2.02 4.69 3.207c.861.447 1.467.211 1.7-.739l3.078-13.464v-.001c.274-1.187-.46-1.651-1.297-1.36L6.614 15.617c-1.235.448-1.217 1.09-.21 1.382l4.627 1.343 10.746-6.276c.506-.313.966-.14.588.173l-8.693 7.285Z"/></symbol><symbol id="icon-github" viewBox="0 0 34 34"><path d="M17 7C11.507 7 7 11.507 7 17c0 4.687 3.289 8.945 7.656 10v-3.308a2.45 2.45 0 0 1-1.271-.033c-.591-.174-1.071-.568-1.428-1.168-.227-.383-.63-.8-1.05-.769l-.103-1.167c.909-.078 1.694.554 2.16 1.337.208.349.447.553.753.643.295.088.613.046.983-.085.093-.741.433-1.018.69-1.41-2.605-.388-3.643-1.77-4.055-2.86-.546-1.449-.253-3.258.712-4.402.019-.022.053-.08.04-.12-.443-1.338.096-2.444.116-2.561.511.15.594-.152 2.22.835l.28.169c.118.07.08.03.198.02A8.484 8.484 0 0 1 17 11.828c.71.009 1.42.11 2.127.302l.091.01c-.008-.002.025-.006.08-.039 2.03-1.23 1.957-.828 2.502-1.005.02.118.551 1.242.113 2.562-.059.182 1.76 1.848.752 4.522-.412 1.09-1.45 2.473-4.054 2.861.334.51.735.78.733 1.83V27C23.71 25.945 27 21.687 27 17c0-5.493-4.507-10-10-10Z"/><symbol id="icon-facebook" viewBox="0 0 16 32"><path d="M14.266 15.97H10.09v15.39H3.763V15.97H.754v-5.409h3.009v-3.5c0-2.503 1.182-6.422 6.384-6.422l4.687.02v5.25h-3.401c-.558 0-1.342.28-1.342 1.474v3.183h4.729l-.553 5.403z"/></symbol></symbol></defs></svg>