<?xml version="1.0" standalone="no"?>
<!DOCTYPE svg PUBLIC "-//W3C//DTD SVG 20010904//EN"
 "http://www.w3.org/TR/2001/REC-SVG-20010904/DTD/svg10.dtd">
<svg version="1.0" xmlns="http://www.w3.org/2000/svg"
 width="280.000000pt" height="280.000000pt" viewBox="0 0 280.000000 280.000000"
 preserveAspectRatio="xMidYMid meet">
<metadata>
Created by potrace 1.14, written by Peter Selinger 2001-2017
</metadata>
<g transform="translate(0.000000,280.000000) scale(0.100000,-0.100000)"
fill="#000000" stroke="none">
<path d="M1450 2309 c0 -5 5 -7 10 -4 6 3 10 8 10 11 0 2 -4 4 -10 4 -5 0 -10
-5 -10 -11z"/>
<path d="M554 2289 c-10 -11 -19 -37 -20 -57 -1 -21 -4 -50 -7 -65 -2 -16 1
-34 9 -42 9 -9 10 -15 3 -17 -7 -2 -8 -20 -3 -53 4 -28 10 -42 12 -32 2 9 7
17 12 17 9 0 7 -26 -3 -36 -12 -12 -8 -26 6 -21 19 7 17 -25 -2 -40 -12 -10
-13 -12 -2 -13 10 0 11 -3 2 -13 -8 -11 -2 -18 29 -35 38 -20 40 -20 40 -3 0
26 29 92 30 67 0 -11 8 -28 18 -39 16 -19 16 -20 -4 -9 -12 6 -24 8 -28 5 -11
-11 -7 -41 7 -47 8 -3 7 -5 -3 -4 -8 1 -26 -4 -38 -11 -23 -12 -23 -11 -17 11
4 12 4 20 0 16 -5 -4 -15 -2 -24 4 -13 10 -14 10 -4 -1 7 -8 10 -27 7 -45 -4
-24 -3 -28 5 -16 6 8 11 11 11 7 0 -5 7 -1 16 7 22 22 25 21 68 -24 21 -22 35
-40 31 -40 -3 0 -21 17 -40 37 -33 36 -35 37 -49 18 -7 -10 -12 -25 -9 -32 6
-16 -2 -16 -28 -3 -12 7 -19 7 -19 1 0 -5 -7 -16 -15 -25 -15 -15 -10 -50 6
-40 5 3 6 -3 2 -12 -6 -15 -7 -15 -20 2 -12 16 -15 17 -23 4 -10 -16 12 -40
36 -40 6 0 16 -6 22 -12 8 -10 4 -13 -18 -13 -16 0 -28 5 -27 10 1 6 -4 9 -10
7 -7 -1 -13 2 -13 8 0 15 -76 12 -89 -3 -6 -8 -8 -17 -4 -21 4 -4 0 -4 -9 -1
-9 4 -26 2 -37 -5 -20 -10 -20 -12 -4 -36 9 -14 26 -30 37 -34 17 -7 18 -9 4
-9 -10 -1 -18 -5 -18 -10 0 -5 -14 -11 -31 -15 -38 -7 -109 -76 -109 -104 0
-26 107 -82 156 -82 18 0 36 -5 40 -11 4 -7 23 -9 53 -5 64 8 74 10 89 19 6 5
15 6 20 4 9 -6 10 99 0 108 -10 10 -69 -5 -62 -16 3 -5 0 -9 -6 -9 -24 0 -3
24 31 35 28 10 35 17 37 42 2 24 -2 33 -17 38 -12 3 -21 11 -21 16 0 5 -3 8
-7 8 -20 -3 -76 2 -71 6 3 3 59 6 124 7 110 2 122 1 152 -20 32 -23 41 -45 23
-57 -5 -3 -9 -33 -9 -68 2 -73 -20 -117 -57 -117 -13 0 -25 -6 -28 -12 -5 -17
12 -68 23 -65 4 1 18 -9 31 -23 24 -25 77 -55 92 -52 4 1 7 -6 7 -16 0 -14 2
-15 10 -2 7 11 10 11 10 2 0 -7 5 -10 10 -7 6 4 9 1 8 -7 -2 -7 3 -12 10 -11
6 2 12 -1 12 -6 0 -5 15 -18 33 -30 46 -29 10 -26 -38 4 -22 14 -42 25 -45 25
-3 0 -6 -13 -7 -28 -1 -21 3 -28 17 -29 11 -1 35 -13 53 -27 19 -14 38 -26 42
-26 5 0 17 -8 28 -17 18 -17 19 -17 33 2 8 10 14 14 14 8 0 -6 12 -18 26 -28
l26 -16 -5 47 c-4 32 0 58 10 77 8 16 13 38 10 48 -3 12 -1 17 6 12 6 -4 8 0
4 10 -4 10 4 32 18 53 14 20 25 41 25 47 0 5 15 7 35 3 21 -4 35 -3 35 3 0 16
-22 25 -63 26 -21 1 -42 6 -45 11 -4 5 -19 15 -34 21 -25 11 -26 14 -15 42 10
29 9 32 -42 83 -30 29 -59 62 -66 73 -22 35 -27 118 -10 159 9 20 18 74 21
119 3 45 11 92 17 105 8 18 7 25 -6 35 -9 6 -19 28 -22 47 -7 41 -47 84 -63
68 -7 -7 -10 -4 -9 8 2 14 -4 18 -21 17 -16 -2 -21 1 -16 9 5 8 2 9 -11 4 -15
-5 -16 -4 -5 9 10 12 10 15 -3 15 -8 0 -21 8 -28 17 -12 15 -12 16 1 8 13 -8
13 -7 1 9 -11 13 -16 14 -22 4 -8 -12 -10 -11 -13 11 0 5 -11 21 -23 35 -13
15 -23 31 -23 37 0 6 -7 9 -15 5 -8 -3 -14 -2 -12 2 1 5 -11 20 -27 35 -36 33
-85 36 -112 6z m81 1 c3 -6 -1 -7 -9 -4 -18 7 -21 14 -7 14 6 0 13 -4 16 -10z
m12 -42 c-3 -8 -6 -5 -6 6 -1 11 2 17 5 13 3 -3 4 -12 1 -19z m53 -28 c0 -5
-8 -10 -17 -10 -15 0 -16 2 -3 10 19 12 20 12 20 0z m-90 -46 c0 -2 -13 2 -30
11 -16 9 -30 20 -30 26 0 6 14 1 30 -11 17 -12 30 -23 30 -26z m102 -2 c-7 -2
-12 -10 -12 -18 0 -8 6 -11 15 -8 8 4 15 1 15 -4 0 -24 -21 -21 -50 6 -30 29
-30 29 -5 24 15 -2 25 0 25 7 0 7 5 9 12 5 9 -6 9 -9 0 -12z m-92 -52 c12 -7
10 -9 -8 -7 -12 0 -22 5 -22 9 0 11 12 10 30 -2z m144 -31 c4 -17 1 -29 -7
-32 -9 -3 -12 7 -12 34 0 41 9 40 19 -2z m29 -4 c-3 -9 -8 -14 -10 -11 -3 3
-2 9 2 15 9 16 15 13 8 -4z m22 -25 c-4 -6 -1 -19 6 -28 11 -13 9 -13 -8 2
-22 18 -22 36 -2 36 6 0 7 -5 4 -10z m55 -29 c0 -12 -20 -25 -27 -18 -7 7 6
27 18 27 5 0 9 -4 9 -9z m-105 -11 c3 -5 1 -10 -4 -10 -6 0 -11 5 -11 10 0 6
2 10 4 10 3 0 8 -4 11 -10z m-135 -34 c0 -2 -7 -9 -15 -16 -13 -11 -14 -10 -9
4 5 14 24 23 24 12z m-40 -225 c0 -13 -29 -35 -37 -27 -3 3 -1 6 6 6 8 0 11 7
7 15 -3 9 0 15 9 15 8 0 15 -4 15 -9z m300 -43 c0 -5 -4 -7 -9 -4 -5 4 -11 0
-14 -6 -2 -7 -4 -1 -3 14 1 20 4 24 14 16 6 -6 12 -15 12 -20z m-435 -138
c-27 -12 -43 -12 -25 0 8 5 22 9 30 9 10 0 8 -3 -5 -9z m418 -220 l6 -35 -14
30 c-16 34 -20 64 -6 50 4 -6 11 -26 14 -45z m144 -236 c-5 -5 -57 13 -57 20
0 3 14 0 31 -6 16 -6 28 -12 26 -14z"/>
<path d="M1350 2293 c-21 -15 -27 -33 -11 -33 6 0 22 11 37 23 21 18 23 24 10
24 -9 0 -25 -7 -36 -14z"/>
<path d="M1417 2303 c-10 -9 -9 -23 2 -23 5 0 11 7 15 15 5 15 -5 20 -17 8z"/>
<path d="M1986 2003 c-6 -14 -5 -15 5 -6 7 7 10 15 7 18 -3 3 -9 -2 -12 -12z"/>
<path d="M1734 1993 c3 -7 -3 -17 -12 -22 -11 -7 -12 -10 -4 -11 8 0 22 -10
33 -22 10 -13 18 -18 19 -11 0 6 -4 15 -10 18 -5 3 -10 13 -10 22 0 11 3 13
13 5 6 -6 14 -10 17 -11 3 0 13 -3 22 -6 9 -4 24 -3 33 3 15 8 15 10 1 24 -8
9 -13 18 -10 21 4 3 -17 5 -45 4 -38 0 -50 -4 -47 -14z"/>
<path d="M1620 1993 c1 -5 12 -21 26 -38 20 -24 25 -26 22 -10 -2 12 2 19 10
18 19 -4 14 15 -7 27 -23 12 -51 13 -51 3z"/>
<path d="M1855 1980 c3 -5 8 -10 11 -10 2 0 4 5 4 10 0 6 -5 10 -11 10 -5 0
-7 -4 -4 -10z"/>
<path d="M1907 1969 c4 -15 0 -22 -16 -26 -11 -3 -21 -9 -21 -14 0 -5 -7 -9
-15 -9 -15 0 -20 -12 -9 -23 8 -8 57 11 66 26 11 17 10 67 -1 67 -5 0 -7 -9
-4 -21z"/>
<path d="M1986 1953 c-6 -14 -5 -15 5 -6 7 7 10 15 7 18 -3 3 -9 -2 -12 -12z"/>
<path d="M1427 1939 c7 -7 23 -13 38 -14 22 -3 24 -1 14 11 -6 8 -23 14 -37
14 -19 0 -23 -3 -15 -11z"/>
<path d="M1563 1935 c-19 -21 -16 -28 11 -21 14 3 28 2 31 -4 3 -5 14 -10 23
-10 12 1 10 5 -8 15 -14 8 -20 15 -15 15 6 0 3 5 -5 10 -19 13 -22 12 -37 -5z"/>
<path d="M1220 1932 c0 -4 9 -8 19 -8 11 0 17 4 15 8 -3 4 -12 8 -20 8 -8 0
-14 -4 -14 -8z"/>
<path d="M1502 1908 c5 -15 28 -23 28 -10 0 5 -7 13 -16 16 -10 4 -14 1 -12
-6z"/>
<path d="M1927 1906 c-4 -10 -1 -13 8 -9 8 3 12 9 9 14 -7 12 -11 11 -17 -5z"/>
<path d="M1458 1843 c7 -3 16 -2 19 1 4 3 -2 6 -13 5 -11 0 -14 -3 -6 -6z"/>
<path d="M1887 1843 c-4 -3 -7 -11 -7 -17 0 -6 5 -5 12 2 6 6 9 14 7 17 -3 3
-9 2 -12 -2z"/>
<path d="M505 1819 c-4 -5 3 -8 14 -6 28 4 34 12 11 14 -11 1 -22 -2 -25 -8z"/>
<path d="M2020 1819 c0 -5 5 -7 10 -4 6 3 10 8 10 11 0 2 -4 4 -10 4 -5 0 -10
-5 -10 -11z"/>
<path d="M1920 1785 c-24 -26 -21 -29 18 -19 12 4 22 12 22 20 0 24 -17 24
-40 -1z"/>
<path d="M2042 1782 c1 -15 -4 -37 -10 -48 -6 -10 -12 -13 -12 -7 0 9 -7 10
-24 3 -15 -5 -27 -5 -35 3 -8 8 -15 7 -28 -6 -9 -9 -13 -20 -9 -24 4 -4 11 -1
15 6 7 11 11 9 19 -5 9 -16 14 -17 31 -6 27 16 31 15 31 -3 0 -10 -10 -15 -29
-15 -25 0 -28 -3 -23 -25 2 -14 8 -22 13 -19 5 3 7 10 3 15 -3 5 0 8 8 7 7 -2
16 -12 19 -23 7 -24 -19 -68 -36 -61 -10 3 -10 -2 -2 -25 6 -16 15 -29 20 -29
5 0 4 -7 -3 -15 -10 -12 -10 -15 1 -15 10 -1 9 -4 -3 -14 -10 -7 -18 -18 -18
-23 0 -6 -10 -17 -22 -26 -13 -8 -19 -18 -14 -23 5 -5 11 -4 13 4 8 20 20 14
27 -14 4 -14 1 -39 -6 -54 -19 -43 -106 -78 -123 -50 -4 6 -15 8 -26 5 -10 -4
-27 -2 -36 4 -17 10 -17 10 0 11 21 0 77 30 77 41 0 4 -18 0 -39 -8 -40 -16
-71 -13 -71 7 0 5 7 10 15 10 8 0 15 7 15 16 0 14 -2 14 -17 -1 -23 -24 -67
-39 -71 -25 -2 6 -17 -10 -34 -35 -32 -49 -44 -55 -51 -27 -3 11 -5 7 -6 -10
-1 -24 -6 -27 -53 -36 -50 -8 -51 -9 -24 -17 20 -5 44 -3 75 9 69 24 119 20
189 -15 34 -17 60 -34 57 -39 -3 -5 8 -14 25 -22 16 -7 30 -16 30 -20 0 -4 4
-18 10 -32 11 -29 40 -26 40 4 0 20 24 71 56 118 20 29 42 112 36 135 -1 5 2
6 7 3 5 -3 14 16 21 42 24 88 22 124 -5 102 -11 -9 -11 -4 -3 27 15 54 20 183
7 183 -6 0 -7 13 -4 33 5 23 2 37 -9 46 -12 11 -15 8 -14 -17z"/>
<path d="M1690 1767 c0 -15 4 -27 9 -27 6 0 8 10 6 21 -6 33 -15 36 -15 6z"/>
<path d="M1876 1726 c-16 -14 -35 -22 -43 -19 -7 3 -13 1 -13 -4 0 -5 -9 -9
-20 -10 -17 -2 -20 2 -14 19 4 15 2 19 -7 15 -8 -2 -13 -10 -11 -16 1 -6 -7
-11 -17 -11 -11 0 -46 -23 -77 -50 -74 -65 -95 -70 -171 -44 -15 6 -16 4 -5
-7 6 -7 12 -21 12 -30 0 -16 -4 -17 -30 -7 -31 10 -74 3 -54 -10 6 -4 14 -16
18 -28 9 -31 34 -27 28 5 -5 23 -3 25 11 12 10 -7 17 -20 17 -27 0 -8 4 -14 9
-14 5 0 12 -10 15 -22 2 -13 4 -4 3 19 -2 39 -1 42 20 37 14 -4 23 -2 23 5 0
6 10 11 23 11 18 0 19 2 7 11 -11 8 -6 9 20 4 51 -11 90 -14 90 -8 0 3 -8 12
-17 20 -10 8 -12 12 -5 8 6 -3 12 -1 12 5 0 7 7 10 15 6 8 -3 15 -1 15 4 0 6
11 10 25 10 14 0 24 5 23 12 -2 7 2 13 7 13 6 1 27 9 47 18 27 11 36 20 32 31
-4 11 0 16 10 16 9 0 16 5 16 10 0 6 7 10 15 10 8 0 15 7 15 15 0 21 -10 18
-44 -9z"/>
<path d="M1200 1630 c0 -6 11 -16 25 -22 14 -6 25 -17 25 -24 0 -7 13 -15 30
-19 16 -4 32 -11 35 -16 4 -5 13 -9 22 -9 9 0 21 -7 28 -17 8 -11 18 -14 31
-9 18 7 18 8 2 17 -10 6 -18 16 -18 24 0 15 -34 30 -49 21 -5 -3 -14 1 -21 9
-7 8 -16 12 -21 10 -4 -3 -26 6 -49 20 -22 14 -40 21 -40 15z"/>
<path d="M1365 1600 c4 -6 11 -8 16 -5 14 9 11 15 -7 15 -8 0 -12 -5 -9 -10z"/>
<path d="M314 1584 c-18 -14 -18 -15 5 -4 18 9 26 9 35 -1 8 -9 8 -10 -1 -5
-6 3 -14 2 -18 -4 -3 -5 3 -10 14 -10 24 0 27 10 9 28 -16 16 -20 15 -44 -4z"/>
<path d="M1120 1589 c0 -6 -6 -9 -13 -6 -6 2 -18 -1 -24 -8 -9 -10 -9 -14 2
-19 8 -3 17 -1 20 4 9 14 45 12 45 -1 0 -8 5 -8 15 1 8 7 21 10 29 7 8 -3 17
1 20 9 8 20 -17 28 -43 15 -13 -7 -22 -8 -26 -1 -8 13 -25 13 -25 -1z"/>
<path d="M317 1549 c7 -7 15 -10 18 -7 3 3 -2 9 -12 12 -14 6 -15 5 -6 -5z"/>
<path d="M1580 1532 c0 -5 7 -15 15 -22 8 -7 15 -8 15 -2 0 5 -7 15 -15 22 -8
7 -15 8 -15 2z"/>
<path d="M1623 1515 c7 -14 16 -25 20 -25 9 0 -9 36 -22 44 -5 4 -4 -5 2 -19z"/>
<path d="M1670 1400 c6 -11 13 -20 16 -20 2 0 0 9 -6 20 -6 11 -13 20 -16 20
-2 0 0 -9 6 -20z"/>
<path d="M1412 1368 c13 -10 32 -17 43 -16 17 1 17 1 -2 5 -13 2 -23 10 -23
17 0 6 -9 12 -20 12 -20 0 -20 -1 2 -18z"/>
<path d="M1105 1350 c-3 -5 -1 -10 4 -10 6 0 11 5 11 10 0 6 -2 10 -4 10 -3 0
-8 -4 -11 -10z"/>
<path d="M590 1330 c0 -5 5 -10 10 -10 6 0 10 5 10 10 0 6 -4 10 -10 10 -5 0
-10 -4 -10 -10z"/>
<path d="M630 1326 c0 -2 7 -7 16 -10 8 -3 12 -2 9 4 -6 10 -25 14 -25 6z"/>
<path d="M1348 1296 c-20 -6 -43 -17 -49 -23 -8 -8 -18 -9 -31 -2 -10 6 -18 6
-18 0 0 -13 37 -20 112 -20 77 0 95 13 47 33 -27 12 -30 15 -13 19 10 2 12 5
4 5 -8 0 -32 -5 -52 -12z"/>
<path d="M1579 1163 c-13 -15 -12 -15 9 -4 23 12 28 21 13 21 -5 0 -15 -7 -22
-17z"/>
<path d="M1486 975 c-16 -12 -17 -15 -4 -15 9 0 18 7 22 15 7 18 6 18 -18 0z"/>
<path d="M1960 965 c0 -8 2 -15 4 -15 2 0 6 7 10 15 3 8 1 15 -4 15 -6 0 -10
-7 -10 -15z"/>
<path d="M1116 959 c3 -6 2 -14 -4 -18 -16 -10 55 -103 76 -98 9 2 34 -5 54
-15 37 -18 68 -23 68 -12 0 16 -22 44 -35 44 -9 0 -12 6 -8 17 4 9 2 14 -4 10
-5 -3 -17 3 -26 14 -16 18 -16 19 10 19 33 0 24 11 -14 15 -67 8 -98 15 -101
25 -2 5 -8 10 -13 10 -6 0 -7 -5 -3 -11z"/>
<path d="M1316 944 c-4 -10 -1 -14 6 -12 15 5 23 28 10 28 -5 0 -13 -7 -16
-16z"/>
<path d="M1684 940 c0 -10 5 -16 11 -14 6 3 27 -2 46 -11 19 -9 24 -14 12 -12
-12 3 -30 -1 -40 -8 -9 -7 -24 -10 -32 -7 -10 4 -13 1 -8 -11 4 -11 -1 -25
-13 -37 -16 -16 -24 -18 -47 -9 l-28 10 22 -21 c22 -20 24 -20 50 -3 16 10 31
21 34 26 3 5 10 9 15 10 5 1 8 5 7 10 -2 4 4 7 13 7 15 0 15 -2 1 -23 -15 -23
-15 -24 9 -19 14 2 29 13 35 24 5 10 14 16 19 13 4 -3 16 -2 25 1 12 5 15 14
10 33 -9 36 -13 39 -72 45 -29 2 -56 7 -61 9 -4 3 -8 -3 -8 -13z"/>
<path d="M1620 940 c-22 -7 -21 -8 13 -9 20 -1 37 4 37 9 0 11 -14 11 -50 0z"/>
<path d="M1533 933 c9 -2 23 -2 30 0 6 3 -1 5 -18 5 -16 0 -22 -2 -12 -5z"/>
<path d="M1603 880 c-18 -11 -33 -22 -33 -24 0 -2 13 -6 29 -8 17 -2 27 0 24
4 -3 5 5 12 16 15 12 3 20 10 18 16 -6 18 -21 18 -54 -3z"/>
<path d="M1446 867 c3 -10 9 -15 12 -12 3 3 0 11 -7 18 -10 9 -11 8 -5 -6z"/>
<path d="M1500 864 c0 -8 5 -12 10 -9 6 3 10 10 10 16 0 5 -4 9 -10 9 -5 0
-10 -7 -10 -16z"/>
<path d="M1385 850 c-3 -5 -1 -19 5 -30 6 -11 7 -20 3 -20 -9 0 19 -20 29 -20
3 0 4 10 1 23 -4 18 -3 19 6 7 8 -11 11 -11 11 -2 0 7 -6 15 -14 18 -8 3 -12
12 -9 20 6 16 -22 20 -32 4z"/>
<path d="M1450 836 c0 -2 9 -6 20 -9 11 -3 18 -1 14 4 -5 9 -34 13 -34 5z"/>
<path d="M1847 799 c-4 -15 -2 -19 10 -15 8 3 17 6 19 6 10 0 3 18 -10 23 -8
3 -16 -2 -19 -14z"/>
<path d="M1570 800 c0 -5 9 -10 20 -10 14 0 18 -5 14 -17 -5 -14 -4 -15 4 -4
6 8 8 20 5 28 -6 15 -43 18 -43 3z"/>
<path d="M1805 803 c-25 -5 -100 -112 -87 -125 5 -5 19 -10 32 -13 12 -2 20
-2 17 1 -8 8 40 89 51 87 6 -2 9 3 6 11 -3 8 -1 17 5 21 12 7 15 26 4 24 -5
-1 -17 -4 -28 -6z"/>
<path d="M1892 806 c3 -4 -2 -16 -13 -27 -11 -11 -17 -24 -14 -29 4 -6 0 -10
-8 -10 -8 0 -18 -12 -21 -26 -5 -19 -11 -24 -26 -19 -11 4 -20 2 -20 -3 0 -15
42 -23 56 -11 7 6 10 18 7 26 -4 10 -2 14 4 10 5 -3 16 6 23 21 7 15 16 35 21
44 6 11 4 20 -4 24 -6 4 -9 4 -5 0z"/>
<path d="M1320 780 c-13 -8 -11 -13 11 -36 15 -15 32 -23 38 -20 16 10 14 26
-4 26 -8 0 -15 9 -15 20 0 22 -7 25 -30 10z"/>
<path d="M1365 770 c3 -5 11 -10 16 -10 6 0 7 5 4 10 -3 6 -11 10 -16 10 -6 0
-7 -4 -4 -10z"/>
<path d="M1555 770 c-8 -13 9 -20 24 -11 10 6 9 10 -3 14 -8 3 -18 2 -21 -3z"/>
<path d="M1226 756 c7 -19 20 -21 30 -3 4 6 4 9 -1 5 -4 -4 -14 -3 -22 4 -11
8 -12 7 -7 -6z"/>
<path d="M1675 761 c-3 -6 -16 -12 -28 -12 -15 -1 -17 -3 -6 -6 11 -3 15 -11
12 -24 -8 -29 4 -23 21 13 15 29 16 52 1 29z"/>
<path d="M1417 746 c-4 -9 -1 -16 6 -16 7 -1 5 -6 -5 -14 -16 -11 -14 -14 17
-29 38 -18 43 -28 20 -47 -8 -7 -15 -8 -15 -3 0 6 -19 13 -42 16 -23 3 -45 13
-50 21 -5 9 -21 16 -35 16 -15 0 -24 -3 -20 -6 8 -8 -14 -67 -30 -79 -8 -6
-15 -36 -17 -70 -5 -75 -15 -117 -27 -109 -5 3 -9 -2 -9 -11 0 -9 4 -14 8 -11
21 13 3 -38 -21 -58 -15 -13 -27 -27 -27 -31 0 -4 7 -2 15 5 8 7 15 9 15 4 0
-4 6 0 13 11 8 10 19 15 25 11 6 -3 13 -2 17 4 3 5 1 10 -6 10 -7 0 -10 2 -7
5 9 9 39 -7 35 -19 -2 -6 0 -21 4 -34 7 -18 5 -22 -10 -22 -11 0 -21 5 -23 12
-3 9 -6 9 -12 0 -4 -7 0 -15 11 -20 22 -9 31 -37 9 -29 -9 4 -18 2 -22 -4 -12
-19 -36 13 -29 40 5 20 4 22 -8 13 -8 -7 -18 -8 -22 -4 -5 4 -4 0 1 -8 4 -8 7
-27 5 -42 -2 -28 4 -32 39 -29 13 2 13 0 1 -8 -10 -6 -12 -19 -7 -47 4 -22 8
-44 8 -51 1 -7 5 -10 9 -7 4 2 10 -2 12 -8 4 -8 6 -7 6 4 1 9 -5 19 -11 22 -7
3 6 5 29 3 43 -2 61 12 46 35 -3 6 -1 8 4 5 6 -4 13 3 17 16 11 42 8 47 -20
37 -14 -6 -26 -10 -27 -10 -1 0 -2 14 -3 30 -1 25 3 30 22 30 14 0 24 6 24 15
0 8 9 19 20 25 11 6 27 23 35 38 l16 27 -4 -27 c-3 -23 0 -28 24 -33 15 -3 30
-13 33 -21 4 -11 -5 -14 -39 -14 -25 0 -45 -4 -45 -10 0 -5 7 -7 15 -4 8 3 21
0 29 -8 12 -13 11 -16 -5 -26 -10 -7 -19 -18 -19 -25 0 -8 4 -7 10 3 5 8 10
11 10 6 0 -5 7 -3 15 4 11 9 15 9 15 1 0 -7 5 -9 13 -5 8 5 8 2 -2 -9 -10 -13
-11 -20 -2 -30 8 -11 6 -18 -8 -31 -15 -13 -20 -14 -24 -4 -3 7 -6 -4 -8 -24
-1 -21 -2 -44 -3 -50 -1 -7 -5 -16 -10 -20 -6 -4 -4 -13 3 -22 18 -21 95 -21
178 1 70 19 88 39 78 90 -2 14 1 35 7 47 7 12 11 35 10 51 -3 36 4 47 41 62
15 7 27 18 27 25 0 9 -3 9 -12 0 -15 -15 -28 -16 -28 -2 0 6 10 15 23 20 12 5
16 9 9 9 -7 1 -10 6 -7 11 4 6 12 7 18 3 8 -5 8 -2 -1 9 -10 12 -9 18 3 28 17
14 13 76 -5 72 -6 -1 -9 2 -5 8 4 7 -4 9 -24 5 -32 -6 -51 9 -24 19 9 4 20 1
25 -6 5 -9 8 -9 8 -1 0 6 9 9 20 6 11 -3 20 -9 20 -14 0 -5 5 -9 12 -9 9 0 9
3 1 11 -8 8 -5 23 13 57 13 25 24 51 24 59 0 8 4 12 8 9 4 -2 9 4 9 15 2 18
-16 25 -54 20 -7 -1 -13 4 -13 10 0 7 -3 9 -7 6 -3 -4 -12 -2 -20 4 -7 6 -13
8 -13 5 0 -4 -8 -2 -18 3 -14 7 -21 5 -32 -12 -8 -12 -13 -28 -11 -35 1 -8 -5
-23 -15 -33 -9 -11 -19 -33 -21 -50 -2 -21 -21 -49 -64 -92 -45 -47 -59 -67
-56 -84 2 -12 -1 -24 -7 -26 -8 -3 -7 -11 2 -27 7 -12 11 -25 8 -28 -3 -3 -6
-1 -6 5 0 5 -11 15 -24 21 -19 8 -23 16 -19 34 3 13 10 28 15 34 5 7 8 16 7
20 -4 23 3 36 30 52 29 17 31 21 31 46 0 8 16 20 35 27 34 13 34 14 19 37 -14
21 -14 26 0 47 15 22 15 24 0 18 -12 -4 -15 -2 -12 8 3 8 10 14 16 14 10 0 42
47 42 61 0 2 -21 4 -47 5 -35 1 -42 3 -24 8 33 9 38 29 7 26 -29 -4 -69 -29
-59 -38 12 -13 -8 -7 -35 10 -15 9 -34 25 -43 36 -14 17 -17 18 -22 3z m137
-70 c-10 -8 -21 -12 -24 -10 -5 6 21 24 34 24 6 0 1 -6 -10 -14z m-88 -96 c9
0 12 -5 8 -12 -6 -10 -4 -10 7 0 18 17 39 15 39 -3 0 -11 -11 -15 -39 -15 -30
0 -40 4 -44 19 -5 21 5 40 11 22 2 -6 10 -11 18 -11z m238 -24 c-3 -9 -10 -13
-16 -10 -5 3 -4 12 3 20 15 18 22 13 13 -10z m66 14 c0 -5 -7 -7 -15 -4 -8 4
-15 8 -15 10 0 2 7 4 15 4 8 0 15 -4 15 -10z m-344 -115 c-14 -39 -27 -57 -21
-28 13 63 16 73 24 69 5 -3 3 -21 -3 -41z m-92 -57 c-7 -11 -34 -10 -34 1 0 6
9 9 19 8 11 0 17 -5 15 -9z m152 -130 c5 -7 3 -8 -6 -3 -10 6 -12 4 -7 -8 3
-9 1 -19 -5 -23 -7 -5 -8 -2 -3 6 6 10 4 12 -8 7 -18 -7 -19 13 -2 25 14 11
23 10 31 -4z m-201 -92 c12 -12 12 -15 0 -20 -8 -3 -15 -4 -15 -2 0 3 -3 11
-6 20 -8 20 3 21 21 2z m351 -103 c-15 -28 -16 -28 -13 -3 1 14 6 28 12 32 17
12 17 1 1 -29z"/>
<path d="M1086 743 c-3 -3 -6 -17 -6 -30 0 -14 -4 -32 -9 -42 -8 -15 -4 -17
32 -19 34 -2 39 0 24 9 -10 6 -25 8 -33 5 -8 -3 -14 -1 -14 4 0 6 5 10 11 10
5 0 7 5 4 10 -6 9 8 14 28 11 4 0 7 4 7 9 0 6 -7 10 -16 10 -8 0 -13 4 -9 9 6
11 -9 23 -19 14z"/>
<path d="M1810 729 c0 -5 5 -7 10 -4 6 3 10 8 10 11 0 2 -4 4 -10 4 -5 0 -10
-5 -10 -11z"/>
<path d="M1270 700 c-9 -6 -10 -10 -3 -10 6 0 15 5 18 10 8 12 4 12 -15 0z"/>
<path d="M1225 670 c3 -5 10 -10 16 -10 5 0 9 5 9 10 0 6 -7 10 -16 10 -8 0
-12 -4 -9 -10z"/>
<path d="M1187 664 c-3 -4 -2 -15 4 -26 5 -10 8 -22 5 -26 -3 -4 4 -13 14 -19
16 -10 18 -8 23 20 5 37 -26 71 -46 51z m27 -20 c3 -8 2 -12 -4 -9 -6 3 -10
10 -10 16 0 14 7 11 14 -7z"/>
<path d="M1180 528 c0 -4 5 -8 11 -8 5 0 7 -5 3 -12 -4 -7 -3 -8 4 -4 17 10
15 33 -3 33 -8 0 -15 -4 -15 -9z"/>
<path d="M1177 476 c-4 -10 -5 -21 -2 -24 9 -9 17 6 13 25 -3 17 -4 17 -11 -1z"/>
<path d="M1155 371 c-3 -5 -1 -12 5 -16 5 -3 10 1 10 9 0 18 -6 21 -15 7z"/>
<path d="M1346 172 c-4 -7 -4 -21 -1 -33 7 -21 -11 -52 -26 -43 -5 3 -9 0 -9
-5 0 -6 5 -11 10 -11 14 0 13 -27 -2 -36 -7 -4 -8 -3 -4 4 4 7 3 12 -2 12 -6
0 -12 -7 -16 -15 -8 -21 28 -20 45 2 8 9 13 24 11 33 -1 9 4 23 13 30 8 7 15
27 15 44 0 21 -3 27 -9 17 -7 -11 -9 -11 -13 0 -3 10 -6 10 -12 1z"/>
<path d="M1259 69 c-8 -16 -7 -17 13 -10 26 10 35 28 13 28 -9 0 -20 -8 -26
-18z"/>
</g>
</svg>
